G75*
%MOIN*%
%OFA0B0*%
%FSLAX25Y25*%
%IPPOS*%
%LPD*%
%AMOC8*
5,1,8,0,0,1.08239X$1,22.5*
%
%ADD10C,0.12998*%
%ADD11C,0.06400*%
%ADD12OC8,0.06000*%
%ADD13C,0.08000*%
%ADD14OC8,0.07000*%
%ADD15OC8,0.06400*%
%ADD16C,0.04800*%
%ADD17C,0.07800*%
%ADD18OC8,0.05600*%
%ADD19C,0.07000*%
%ADD20C,0.16998*%
%ADD21C,0.16600*%
%ADD22OC8,0.03778*%
D10*
X0083112Y0084503D03*
X0083112Y0269503D03*
X0369112Y0319503D03*
X0369112Y0039503D03*
D11*
X0353612Y0042003D02*
X0353612Y0036003D01*
X0343612Y0036003D02*
X0343612Y0042003D01*
X0333612Y0042003D02*
X0333612Y0036003D01*
X0323612Y0036003D02*
X0323612Y0042003D01*
X0313612Y0042003D02*
X0313612Y0036003D01*
X0303612Y0036003D02*
X0303612Y0042003D01*
X0278612Y0042003D02*
X0278612Y0036003D01*
X0268612Y0036003D02*
X0268612Y0042003D01*
X0258612Y0042003D02*
X0258612Y0036003D01*
X0248612Y0036003D02*
X0248612Y0042003D01*
X0238612Y0042003D02*
X0238612Y0036003D01*
X0228612Y0036003D02*
X0228612Y0042003D01*
X0218612Y0042003D02*
X0218612Y0036003D01*
X0208612Y0036003D02*
X0208612Y0042003D01*
X0115612Y0061003D02*
X0109612Y0061003D01*
X0109612Y0071003D02*
X0115612Y0071003D01*
X0036612Y0224003D02*
X0030612Y0224003D01*
X0030612Y0234003D02*
X0036612Y0234003D01*
X0036612Y0244003D02*
X0030612Y0244003D01*
X0030612Y0284003D02*
X0036612Y0284003D01*
X0036612Y0294003D02*
X0030612Y0294003D01*
X0030612Y0304003D02*
X0036612Y0304003D01*
X0095612Y0314003D02*
X0095612Y0320003D01*
X0105612Y0320003D02*
X0105612Y0314003D01*
X0138612Y0314503D02*
X0138612Y0320503D01*
X0148612Y0320503D02*
X0148612Y0314503D01*
X0158612Y0314503D02*
X0158612Y0320503D01*
X0168612Y0320503D02*
X0168612Y0314503D01*
X0178612Y0314503D02*
X0178612Y0320503D01*
X0188612Y0320503D02*
X0188612Y0314503D01*
X0185112Y0243003D02*
X0185112Y0237003D01*
X0195112Y0237003D02*
X0195112Y0243003D01*
X0175112Y0243003D02*
X0175112Y0237003D01*
X0165112Y0237003D02*
X0165112Y0243003D01*
X0155112Y0243003D02*
X0155112Y0237003D01*
X0145112Y0237003D02*
X0145112Y0243003D01*
X0135112Y0243003D02*
X0135112Y0237003D01*
X0125112Y0237003D02*
X0125112Y0243003D01*
X0300612Y0236003D02*
X0306612Y0236003D01*
X0306612Y0226003D02*
X0300612Y0226003D01*
X0300612Y0216003D02*
X0306612Y0216003D01*
X0306612Y0189003D02*
X0300612Y0189003D01*
X0300612Y0179003D02*
X0306612Y0179003D01*
X0306612Y0169003D02*
X0300612Y0169003D01*
X0300612Y0142003D02*
X0306612Y0142003D01*
X0306612Y0132003D02*
X0300612Y0132003D01*
X0300612Y0122003D02*
X0306612Y0122003D01*
X0365112Y0124003D02*
X0371112Y0124003D01*
X0371112Y0134003D02*
X0365112Y0134003D01*
X0365112Y0174003D02*
X0371112Y0174003D01*
X0371112Y0184003D02*
X0365112Y0184003D01*
X0365112Y0222003D02*
X0371112Y0222003D01*
X0371112Y0232003D02*
X0365112Y0232003D01*
D12*
X0329612Y0249503D03*
X0329612Y0259503D03*
X0218612Y0214003D03*
X0218612Y0204003D03*
X0213612Y0124003D03*
X0213612Y0114003D03*
X0182612Y0093503D03*
X0172612Y0093503D03*
X0172612Y0083503D03*
X0182612Y0083503D03*
X0132112Y0044503D03*
X0132112Y0034503D03*
X0064112Y0082503D03*
X0064112Y0092503D03*
X0063612Y0104003D03*
X0063612Y0114003D03*
X0048612Y0119003D03*
X0038612Y0119003D03*
X0095612Y0116003D03*
X0095612Y0126003D03*
X0103112Y0200503D03*
X0113112Y0200503D03*
X0063612Y0224003D03*
X0063612Y0234003D03*
X0063612Y0244003D03*
X0063612Y0254003D03*
X0063612Y0284003D03*
X0063612Y0294003D03*
X0063612Y0304003D03*
X0063612Y0314003D03*
D13*
X0018612Y0101003D03*
X0018612Y0061003D03*
D14*
X0328612Y0274003D03*
X0328612Y0284003D03*
D15*
X0048612Y0199003D03*
X0038612Y0199003D03*
X0038612Y0189003D03*
X0048612Y0189003D03*
X0048612Y0179003D03*
X0038612Y0179003D03*
D16*
X0151412Y0099003D02*
X0155812Y0099003D01*
X0155812Y0079003D02*
X0151412Y0079003D01*
D17*
X0332612Y0221003D03*
X0340112Y0226003D03*
X0332612Y0231003D03*
X0333612Y0184003D03*
X0341112Y0179003D03*
X0333612Y0174003D03*
X0336612Y0134003D03*
X0344112Y0129003D03*
X0336612Y0124003D03*
D18*
X0238612Y0124003D03*
X0238612Y0114003D03*
X0228612Y0114003D03*
X0228612Y0124003D03*
X0133612Y0114003D03*
X0133612Y0104003D03*
X0133612Y0094003D03*
X0133612Y0084003D03*
X0298612Y0274003D03*
X0298612Y0284003D03*
X0283612Y0294003D03*
X0273612Y0294003D03*
X0255612Y0294003D03*
X0245612Y0294003D03*
X0233612Y0294003D03*
X0223612Y0294003D03*
X0298612Y0299003D03*
X0308612Y0299003D03*
D19*
X0283486Y0319503D03*
X0267738Y0319503D03*
X0258986Y0319503D03*
X0243238Y0319503D03*
X0233486Y0319003D03*
X0217738Y0319003D03*
D20*
X0034944Y0059637D03*
D21*
X0035044Y0030815D03*
X0049753Y0047126D03*
D22*
X0145112Y0127003D03*
X0153112Y0126503D03*
X0174612Y0155503D03*
X0196112Y0134503D03*
X0212612Y0134003D03*
X0271432Y0161503D03*
X0274612Y0153003D03*
X0279612Y0142003D03*
X0279433Y0138035D03*
X0279332Y0183503D03*
X0268612Y0192824D03*
X0279332Y0230503D03*
X0197112Y0222324D03*
X0192112Y0219503D03*
X0189554Y0216448D03*
X0188556Y0221559D03*
X0194577Y0230573D03*
X0197612Y0211003D03*
X0143612Y0222824D03*
X0101112Y0283503D03*
X0046112Y0173003D03*
X0059112Y0162503D03*
X0072612Y0149003D03*
X0103112Y0146503D03*
X0108112Y0145503D03*
X0114612Y0135503D03*
M02*
