%
M48
M72
T01C0.01378
T02C0.02400
T03C0.03150
T04C0.03200
T05C0.04000
T06C0.04400
T07C0.11800
T08C0.12598
%
T01
X145112Y127003
X153112Y126503
X174612Y155503
X196112Y134503
X212612Y134003
X271432Y161503
X274612Y153003
X279612Y142003
X279433Y138035
X279332Y183503
X268612Y192824
X279332Y230503
X197112Y222324
X192112Y219503
X189554Y216448
X188556Y221559
X194577Y230573
X197612Y211003
X143612Y222824
X101112Y283503
X46112Y173003
X59112Y162503
X72612Y149003
X103112Y146503
X108112Y145503
X114612Y135503
T02
X153612Y99003
X153612Y79003
T03
X217738Y319003
X233486Y319003
X243238Y319503
X258986Y319503
X267738Y319503
X283486Y319503
T04
X298612Y299003
X308612Y299003
X298612Y284003
X298612Y274003
X283612Y294003
X273612Y294003
X255612Y294003
X245612Y294003
X233612Y294003
X223612Y294003
X218612Y214003
X218612Y204003
X213612Y124003
X213612Y114003
X228612Y114003
X238612Y114003
X238612Y124003
X228612Y124003
X182612Y93503
X172612Y93503
X172612Y83503
X182612Y83503
X133612Y84003
X133612Y94003
X133612Y104003
X133612Y114003
X95612Y116003
X95612Y126003
X63612Y114003
X63612Y104003
X64112Y92503
X64112Y82503
X48612Y119003
X38612Y119003
X103112Y200503
X113112Y200503
X63612Y224003
X63612Y234003
X63612Y244003
X63612Y254003
X63612Y284003
X63612Y294003
X63612Y304003
X63612Y314003
X328612Y284003
X328612Y274003
X329612Y259503
X329612Y249503
X332612Y231003
X340112Y226003
X332612Y221003
X333612Y184003
X341112Y179003
X333612Y174003
X336612Y134003
X344112Y129003
X336612Y124003
X132112Y44503
X132112Y34503
T05
X112612Y61003
X112612Y71003
X208612Y39003
X218612Y39003
X228612Y39003
X238612Y39003
X248612Y39003
X258612Y39003
X268612Y39003
X278612Y39003
X303612Y39003
X313612Y39003
X323612Y39003
X333612Y39003
X343612Y39003
X353612Y39003
X303612Y122003
X303612Y132003
X303612Y142003
X303612Y169003
X303612Y179003
X303612Y189003
X303612Y216003
X303612Y226003
X303612Y236003
X368112Y232003
X368112Y222003
X368112Y184003
X368112Y174003
X368112Y134003
X368112Y124003
X195112Y240003
X185112Y240003
X175112Y240003
X165112Y240003
X155112Y240003
X145112Y240003
X135112Y240003
X125112Y240003
X48612Y199003
X38612Y199003
X38612Y189003
X48612Y189003
X48612Y179003
X38612Y179003
X33612Y224003
X33612Y234003
X33612Y244003
X33612Y284003
X33612Y294003
X33612Y304003
X95612Y317003
X105612Y317003
X138612Y317503
X148612Y317503
X158612Y317503
X168612Y317503
X178612Y317503
X188612Y317503
T06
X18612Y101003
X18612Y61003
T07
X35044Y30815
X49753Y47126
T08
X34944Y59637
X83112Y84503
X83112Y269503
X369112Y319503
X369112Y39503
M30
